<?xml version="1.0" encoding="utf-8"?>
<!-- Generator: Adobe Illustrator 19.2.1, SVG Export Plug-In . SVG Version: 6.00 Build 0)  -->
<!DOCTYPE svg PUBLIC "-//W3C//DTD SVG 1.1//EN" "http://www.w3.org/Graphics/SVG/1.1/DTD/svg11.dtd">
<svg version="1.1" id="Layer_1" xmlns="http://www.w3.org/2000/svg" xmlns:xlink="http://www.w3.org/1999/xlink" x="0px" y="0px"
	 viewBox="0 0 32 32" style="enable-background:new 0 0 32 32;" xml:space="preserve">
<style type="text/css">
	.st0{fill:none;stroke:#000000;stroke-width:2;stroke-linecap:round;stroke-miterlimit:10;}
</style>
<path d="M28.9,17.1H3.1c-0.6,0-1-0.4-1-1s0.4-1,1-1h25.8c0.6,0,1,0.4,1,1S29.4,17.1,28.9,17.1z"/>
<path d="M10.7,24.7c-0.3,0-0.5-0.1-0.7-0.3l-8.3-8.3L10,7.7c0.4-0.4,1-0.4,1.4,0s0.4,1,0,1.4l-6.9,6.9l6.9,6.9c0.4,0.4,0.4,1,0,1.4
	C11.2,24.6,11,24.7,10.7,24.7z"/>
<path class="st0" d="M19,7.4"/>
</svg>
