<?xml version="1.0" encoding="utf-8"?>
<!-- Generator: Adobe Illustrator 19.2.1, SVG Export Plug-In . SVG Version: 6.00 Build 0)  -->
<!DOCTYPE svg PUBLIC "-//W3C//DTD SVG 1.1//EN" "http://www.w3.org/Graphics/SVG/1.1/DTD/svg11.dtd">
<svg version="1.1" id="Layer_1" xmlns="http://www.w3.org/2000/svg" xmlns:xlink="http://www.w3.org/1999/xlink" x="0px" y="0px"
	 viewBox="0 0 32 32" style="enable-background:new 0 0 32 32;" xml:space="preserve">
<style type="text/css">
	.st0{fill:#FFFFFF;}
</style>
<g>
	<ellipse transform="matrix(0.7071 -0.7071 0.7071 0.7071 -5.6504 13.6412)" class="st0" cx="13.6" cy="13.6" rx="9.1" ry="9.1"/>
	<path d="M13.6,23.8c-2.6,0-5.2-1-7.2-3c-3.9-3.9-3.9-10.4,0-14.3c3.9-3.9,10.4-3.9,14.3,0c3.9,3.9,3.9,10.4,0,14.3
		C18.8,22.8,16.2,23.8,13.6,23.8z M13.6,5.5c-2.1,0-4.2,0.8-5.7,2.4c-3.2,3.2-3.2,8.3,0,11.5c3.2,3.2,8.3,3.2,11.5,0
		c3.2-3.2,3.2-8.3,0-11.5C17.8,6.3,15.7,5.5,13.6,5.5z"/>
</g>
<path d="M26.8,27.8c-0.3,0-0.5-0.1-0.7-0.3l-6.7-6.7c-0.4-0.4-0.4-1,0-1.4s1-0.4,1.4,0l6.7,6.7c0.4,0.4,0.4,1,0,1.4
	C27.3,27.7,27.1,27.8,26.8,27.8z"/>
</svg>
