<?xml version="1.0" encoding="utf-8"?>
<!-- Generator: Adobe Illustrator 19.2.1, SVG Export Plug-In . SVG Version: 6.00 Build 0)  -->
<!DOCTYPE svg PUBLIC "-//W3C//DTD SVG 1.1//EN" "http://www.w3.org/Graphics/SVG/1.1/DTD/svg11.dtd">
<svg version="1.1" id="Layer_1" xmlns="http://www.w3.org/2000/svg" xmlns:xlink="http://www.w3.org/1999/xlink" x="0px" y="0px"
	 viewBox="0 0 32 32" style="enable-background:new 0 0 32 32;" xml:space="preserve">
<path d="M14.3,22.6c-2.2,0-4.3-0.9-5.9-2.4s-2.4-3.7-2.4-5.9c0-2.2,0.9-4.3,2.4-5.9s3.7-2.4,5.9-2.4c2.2,0,4.3,0.9,5.9,2.4l0,0l0,0
	c1.6,1.6,2.4,3.7,2.4,5.9c0,2.2-0.9,4.3-2.4,5.9S16.5,22.6,14.3,22.6z M14.3,6.9c-2,0-3.8,0.8-5.2,2.2c-1.4,1.4-2.2,3.2-2.2,5.2
	c0,2,0.8,3.8,2.2,5.2c1.4,1.4,3.2,2.2,5.2,2.2c2,0,3.8-0.8,5.2-2.2s2.2-3.2,2.2-5.2c0-2-0.8-3.8-2.2-5.2l0,0
	C18.1,7.7,16.2,6.9,14.3,6.9z"/>
<rect x="22.2" y="18.6" transform="matrix(0.7071 -0.7071 0.7071 0.7071 -9.4013 22.6968)" width="1" height="8.2"/>
</svg>
